<svg width="20" height="20" viewBox="0 0 18 16" fill="none" xmlns="http://www.w3.org/2000/svg">
<path fill-rule="evenodd" clip-rule="evenodd" d="M10.4 5.59841C11.003 5.59831 11.59 5.40363 12.0735 5.04331C12.5571 4.68298 12.9115 4.17625 13.084 3.59841H15.2C15.4122 3.59841 15.6157 3.51413 15.7657 3.3641C15.9157 3.21407 16 3.01059 16 2.79841C16 2.58624 15.9157 2.38276 15.7657 2.23273C15.6157 2.0827 15.4122 1.99841 15.2 1.99841H13.084C12.9112 1.42088 12.5567 0.914493 12.0731 0.554472C11.5896 0.194451 11.0028 0 10.4 0C9.79716 0 9.2104 0.194451 8.72687 0.554472C8.24333 0.914493 7.88883 1.42088 7.716 1.99841H0.8C0.587827 1.99841 0.384344 2.0827 0.234315 2.23273C0.0842854 2.38276 0 2.58624 0 2.79841C0 3.01059 0.0842854 3.21407 0.234315 3.3641C0.384344 3.51413 0.587827 3.59841 0.8 3.59841H7.716C7.88854 4.17625 8.24293 4.68298 8.72649 5.04331C9.21004 5.40363 9.79696 5.59831 10.4 5.59841ZM0.8 9.99841C0.587827 9.99841 0.384344 10.0827 0.234315 10.2327C0.0842854 10.3828 0 10.5862 0 10.7984C0 11.0106 0.0842854 11.2141 0.234315 11.3641C0.384344 11.5141 0.587827 11.5984 0.8 11.5984H2.516C2.68883 12.176 3.04333 12.6823 3.52687 13.0424C4.0104 13.4024 4.59716 13.5968 5.2 13.5968C5.80284 13.5968 6.3896 13.4024 6.87313 13.0424C7.35667 12.6823 7.71117 12.176 7.884 11.5984H15.2C15.4122 11.5984 15.6157 11.5141 15.7657 11.3641C15.9157 11.2141 16 11.0106 16 10.7984C16 10.5862 15.9157 10.3828 15.7657 10.2327C15.6157 10.0827 15.4122 9.99841 15.2 9.99841H7.884C7.71117 9.42088 7.35667 8.91449 6.87313 8.55447C6.3896 8.19445 5.80284 8 5.2 8C4.59716 8 4.0104 8.19445 3.52687 8.55447C3.04333 8.91449 2.68883 9.42088 2.516 9.99841H0.8Z" fill="white"/>
</svg>
