<svg width="96" height="17" viewBox="0 0 96 17" fill="none" xmlns="http://www.w3.org/2000/svg">
<path d="M10.5 1.34C10.8067 1.34 11.0333 1.35333 11.18 1.38C11.34 1.39333 11.5133 1.45333 11.7 1.56C11.9 1.66667 12.04 1.84667 12.12 2.1C12.2 2.35333 12.24 2.69333 12.24 3.12C12.24 3.54667 12.2 3.88667 12.12 4.14C12.04 4.39333 11.9 4.57333 11.7 4.68C11.5 4.77333 11.32 4.83333 11.16 4.86C11.0133 4.87333 10.78 4.88 10.46 4.88H4.34V6.9H8.28C8.6 6.9 8.83333 6.91333 8.98 6.94C9.14 6.95333 9.31333 7.01333 9.5 7.12C9.7 7.22667 9.84 7.41333 9.92 7.68C10 7.93333 10.04 8.27333 10.04 8.7C10.04 9.04667 10.0067 9.33333 9.94 9.56C9.87333 9.78667 9.79333 9.96 9.7 10.08C9.60667 10.2 9.46667 10.2933 9.28 10.36C9.10667 10.4133 8.95333 10.4467 8.82 10.46C8.7 10.46 8.51333 10.46 8.26 10.46H4.34V14.24C4.34 14.56 4.32667 14.7933 4.3 14.94C4.28667 15.0867 4.22667 15.26 4.12 15.46C4.01333 15.66 3.83333 15.8 3.58 15.88C3.32667 15.96 2.98667 16 2.56 16C2.21333 16 1.92667 15.9667 1.7 15.9C1.47333 15.8333 1.3 15.7533 1.18 15.66C1.06 15.5667 0.966667 15.4333 0.9 15.26C0.846667 15.0733 0.813333 14.92 0.8 14.8C0.8 14.6667 0.8 14.4733 0.8 14.22V3.1C0.8 2.42 0.926667 1.96 1.18 1.72C1.43333 1.46667 1.91333 1.34 2.62 1.34H10.5ZM16.9175 5.22C18.3842 5.22 19.6708 5.74 20.7775 6.78C21.8842 7.80667 22.4375 9.12 22.4375 10.72C22.4375 11.8267 22.1508 12.8133 21.5775 13.68C21.0042 14.5333 20.3042 15.1667 19.4775 15.58C18.6642 15.98 17.8242 16.18 16.9575 16.18C16.0642 16.18 15.2042 15.9667 14.3775 15.54C13.5508 15.1 12.8508 14.46 12.2775 13.62C11.7175 12.7667 11.4375 11.8067 11.4375 10.74C11.4375 9.14 11.9975 7.82 13.1175 6.78C14.2375 5.74 15.5042 5.22 16.9175 5.22ZM15.6175 12.18C16.0442 12.5 16.4775 12.66 16.9175 12.66C17.3575 12.66 17.7975 12.4933 18.2375 12.16C18.6775 11.8267 18.8975 11.3333 18.8975 10.68C18.8975 10.0267 18.6908 9.54 18.2775 9.22C17.8642 8.9 17.4042 8.74 16.8975 8.74C16.4442 8.74 16.0108 8.90667 15.5975 9.24C15.1842 9.57333 14.9775 10.06 14.9775 10.7C14.9775 11.3533 15.1908 11.8467 15.6175 12.18ZM28.9097 5.22C30.3764 5.22 31.663 5.74 32.7697 6.78C33.8764 7.80667 34.4297 9.12 34.4297 10.72C34.4297 11.8267 34.143 12.8133 33.5697 13.68C32.9964 14.5333 32.2964 15.1667 31.4697 15.58C30.6564 15.98 29.8164 16.18 28.9497 16.18C28.0564 16.18 27.1964 15.9667 26.3697 15.54C25.543 15.1 24.843 14.46 24.2697 13.62C23.7097 12.7667 23.4297 11.8067 23.4297 10.74C23.4297 9.14 23.9897 7.82 25.1097 6.78C26.2297 5.74 27.4964 5.22 28.9097 5.22ZM27.6097 12.18C28.0364 12.5 28.4697 12.66 28.9097 12.66C29.3497 12.66 29.7897 12.4933 30.2297 12.16C30.6697 11.8267 30.8897 11.3333 30.8897 10.68C30.8897 10.0267 30.683 9.54 30.2697 9.22C29.8564 8.9 29.3964 8.74 28.8897 8.74C28.4364 8.74 28.003 8.90667 27.5897 9.24C27.1764 9.57333 26.9697 10.06 26.9697 10.7C26.9697 11.3533 27.183 11.8467 27.6097 12.18ZM44.3419 0.539999C44.7552 0.539999 45.0885 0.579999 45.3419 0.66C45.5952 0.739999 45.7685 0.879999 45.8619 1.08C45.9685 1.28 46.0285 1.46 46.0419 1.62C46.0685 1.76667 46.0819 1.99333 46.0819 2.3V14.24C46.0819 14.5467 46.0685 14.78 46.0419 14.94C46.0285 15.0867 45.9685 15.26 45.8619 15.46C45.7552 15.6467 45.5752 15.78 45.3219 15.86C45.0685 15.94 44.7285 15.98 44.3019 15.98C43.2885 15.98 42.7285 15.6533 42.6219 15C42.0619 15.64 41.2819 15.96 40.2819 15.96C39.0819 15.96 37.9885 15.44 37.0019 14.4C36.0152 13.3467 35.5219 12.1067 35.5219 10.68C35.5219 9.32 36.0152 8.11333 37.0019 7.06C38.0019 6.00667 39.0952 5.48 40.2819 5.48C41.2685 5.48 42.0352 5.81333 42.5819 6.48V2.28C42.5819 1.97333 42.5885 1.74667 42.6019 1.6C42.6285 1.44 42.6885 1.26667 42.7819 1.08C42.8885 0.879999 43.0685 0.739999 43.3219 0.66C43.5752 0.579999 43.9152 0.539999 44.3419 0.539999ZM39.5419 11.94C39.8885 12.3 40.3085 12.48 40.8019 12.48C41.2952 12.48 41.7019 12.3 42.0219 11.94C42.3552 11.58 42.5219 11.18 42.5219 10.74C42.5219 10.3133 42.3619 9.91333 42.0419 9.54C41.7352 9.16667 41.3152 8.98 40.7819 8.98C40.2485 8.98 39.8219 9.16667 39.5019 9.54C39.1819 9.9 39.0219 10.3 39.0219 10.74C39.0219 11.18 39.1952 11.58 39.5419 11.94ZM55.335 1.34C55.735 1.34 56.055 1.38667 56.295 1.48C56.5483 1.56 56.7217 1.7 56.815 1.9C56.9217 2.1 56.9883 2.28667 57.015 2.46C57.0417 2.62 57.055 2.84667 57.055 3.14V10.88C57.055 12.28 56.5483 13.52 55.535 14.6C54.5217 15.6667 53.2283 16.2 51.655 16.2C51.215 16.2 50.7817 16.14 50.355 16.02C49.9417 15.9133 49.5883 15.78 49.295 15.62C49.015 15.46 48.7617 15.3 48.535 15.14C48.3083 14.98 48.1417 14.84 48.035 14.72L47.875 14.56C47.4083 14.0667 47.175 13.6667 47.175 13.36C47.175 12.96 47.4083 12.52 47.875 12.04C48.3417 11.56 48.7617 11.32 49.135 11.32C49.4817 11.32 49.9083 11.5733 50.415 12.08C50.7883 12.4533 51.235 12.64 51.755 12.64C52.2617 12.64 52.6817 12.4667 53.015 12.12C53.3483 11.7733 53.515 11.3133 53.515 10.74V3.26C53.515 3.00667 53.515 2.81333 53.515 2.68C53.5283 2.53333 53.5683 2.36667 53.635 2.18C53.7017 1.98 53.795 1.83333 53.915 1.74C54.035 1.63333 54.215 1.54 54.455 1.46C54.695 1.38 54.9883 1.34 55.335 1.34ZM63.8316 5.22C65.2982 5.22 66.5849 5.74 67.6916 6.78C68.7982 7.80667 69.3516 9.12 69.3516 10.72C69.3516 11.8267 69.0649 12.8133 68.4916 13.68C67.9182 14.5333 67.2182 15.1667 66.3916 15.58C65.5782 15.98 64.7382 16.18 63.8716 16.18C62.9782 16.18 62.1182 15.9667 61.2916 15.54C60.4649 15.1 59.7649 14.46 59.1916 13.62C58.6316 12.7667 58.3516 11.8067 58.3516 10.74C58.3516 9.14 58.9116 7.82 60.0316 6.78C61.1516 5.74 62.4182 5.22 63.8316 5.22ZM62.5316 12.18C62.9582 12.5 63.3916 12.66 63.8316 12.66C64.2716 12.66 64.7116 12.4933 65.1516 12.16C65.5916 11.8267 65.8116 11.3333 65.8116 10.68C65.8116 10.0267 65.6049 9.54 65.1916 9.22C64.7782 8.9 64.3182 8.74 63.8116 8.74C63.3582 8.74 62.9249 8.90667 62.5116 9.24C62.0982 9.57333 61.8916 10.06 61.8916 10.7C61.8916 11.3533 62.1049 11.8467 62.5316 12.18ZM70.6438 7.22C70.6438 6.91333 70.6504 6.68667 70.6638 6.54C70.6904 6.38 70.7504 6.20667 70.8438 6.02C70.9504 5.82 71.1304 5.68 71.3838 5.6C71.6371 5.52 71.9771 5.48 72.4038 5.48C72.7371 5.48 73.0171 5.51333 73.2438 5.58C73.4838 5.64667 73.6571 5.72667 73.7638 5.82C73.8838 5.91333 73.9704 6.05333 74.0238 6.24C74.0904 6.41333 74.1238 6.56667 74.1238 6.7C74.1371 6.82 74.1438 7.00667 74.1438 7.26V14.26C74.1438 14.5667 74.1304 14.8 74.1038 14.96C74.0904 15.1067 74.0304 15.28 73.9238 15.48C73.8304 15.6667 73.6571 15.8 73.4038 15.88C73.1504 15.96 72.8104 16 72.3838 16C71.9704 16 71.6371 15.96 71.3838 15.88C71.1304 15.8 70.9504 15.66 70.8438 15.46C70.7504 15.26 70.6904 15.0867 70.6638 14.94C70.6504 14.7933 70.6438 14.56 70.6438 14.24V7.22ZM72.3838 4.04C71.9704 4.04 71.6371 4 71.3838 3.92C71.1304 3.84 70.9504 3.7 70.8438 3.5C70.7504 3.3 70.6904 3.12667 70.6638 2.98C70.6504 2.82 70.6438 2.58667 70.6438 2.28C70.6438 1.97333 70.6504 1.74667 70.6638 1.6C70.6904 1.44 70.7504 1.26667 70.8438 1.08C70.9504 0.879999 71.1304 0.739999 71.3838 0.66C71.6371 0.579999 71.9771 0.539999 72.4038 0.539999C72.8171 0.539999 73.1504 0.579999 73.4038 0.66C73.6571 0.739999 73.8304 0.879999 73.9238 1.08C74.0304 1.28 74.0904 1.46 74.1038 1.62C74.1304 1.76667 74.1438 1.99333 74.1438 2.3C74.1438 2.60667 74.1304 2.84 74.1038 3C74.0904 3.14667 74.0304 3.32 73.9238 3.52C73.8304 3.70667 73.6571 3.84 73.4038 3.92C73.1504 4 72.8104 4.04 72.3838 4.04ZM81.6014 5.46C82.9347 5.46 84.0414 5.97333 84.9214 7C85.8147 8.01333 86.2614 9.25333 86.2614 10.72V14.24C86.2614 14.5467 86.2481 14.78 86.2214 14.94C86.2081 15.0867 86.1481 15.26 86.0414 15.46C85.9481 15.6467 85.7747 15.78 85.5214 15.86C85.2681 15.94 84.9281 15.98 84.5014 15.98C84.1547 15.98 83.8681 15.9467 83.6414 15.88C83.4147 15.8133 83.2414 15.74 83.1214 15.66C83.0014 15.5667 82.9081 15.4267 82.8414 15.24C82.7881 15.0533 82.7547 14.9 82.7414 14.78C82.7414 14.66 82.7414 14.4733 82.7414 14.22V10.7C82.7414 10.1533 82.5814 9.72667 82.2614 9.42C81.9547 9.11333 81.5347 8.96 81.0014 8.96C80.4814 8.96 80.0547 9.12 79.7214 9.44C79.4014 9.76 79.2414 10.18 79.2414 10.7V14.24C79.2414 14.5467 79.2281 14.78 79.2014 14.94C79.1881 15.0867 79.1281 15.26 79.0214 15.46C78.9281 15.6467 78.7547 15.78 78.5014 15.86C78.2481 15.94 77.9081 15.98 77.4814 15.98C77.0681 15.98 76.7347 15.94 76.4814 15.86C76.2281 15.78 76.0481 15.64 75.9414 15.44C75.8481 15.24 75.7881 15.0667 75.7614 14.92C75.7481 14.76 75.7414 14.5267 75.7414 14.22V7.14C75.7414 6.84667 75.7481 6.62667 75.7614 6.48C75.7881 6.32 75.8547 6.14667 75.9614 5.96C76.0681 5.77333 76.2481 5.64667 76.5014 5.58C76.7547 5.5 77.0881 5.46 77.5014 5.46C77.9014 5.46 78.2281 5.5 78.4814 5.58C78.7347 5.66 78.9081 5.78 79.0014 5.94C79.0947 6.08667 79.1481 6.21333 79.1614 6.32C79.1881 6.42667 79.2014 6.56667 79.2014 6.74C79.2281 6.7 79.2614 6.65333 79.3014 6.6C79.3547 6.54667 79.4547 6.44667 79.6014 6.3C79.7614 6.15333 79.9281 6.02667 80.1014 5.92C80.2747 5.8 80.4947 5.69333 80.7614 5.6C81.0414 5.50667 81.3214 5.46 81.6014 5.46ZM93.795 9L92.495 8.92V11.68C92.495 12.04 92.5483 12.3 92.655 12.46C92.775 12.62 92.9817 12.7 93.275 12.7C93.6083 12.7 93.855 12.7133 94.015 12.74C94.1883 12.7533 94.3617 12.8133 94.535 12.92C94.7217 13.0133 94.8483 13.1667 94.915 13.38C94.9817 13.5933 95.015 13.8867 95.015 14.26C95.015 14.6733 94.9683 15.0067 94.875 15.26C94.795 15.5133 94.655 15.6933 94.455 15.8C94.255 15.8933 94.075 15.9533 93.915 15.98C93.7683 15.9933 93.5483 16 93.255 16C91.8683 16 90.815 15.6867 90.095 15.06C89.375 14.4333 89.015 13.3733 89.015 11.88V8.92C88.7617 8.96 88.5217 8.98 88.295 8.98C87.935 8.98 87.655 8.86667 87.455 8.64C87.2683 8.41333 87.175 7.94 87.175 7.22C87.175 6.84667 87.2083 6.54 87.275 6.3C87.3417 6.04667 87.435 5.86667 87.555 5.76C87.6883 5.65333 87.815 5.58667 87.935 5.56C88.055 5.52 88.195 5.5 88.355 5.5L89.015 5.58V3.52C89.015 3.21333 89.0217 2.98667 89.035 2.84C89.0617 2.69333 89.1217 2.53333 89.215 2.36C89.3217 2.17333 89.5017 2.04667 89.755 1.98C90.0083 1.9 90.3483 1.86 90.775 1.86C91.1083 1.86 91.3817 1.89333 91.595 1.96C91.8217 2.02667 91.995 2.10667 92.115 2.2C92.235 2.28 92.3217 2.41333 92.375 2.6C92.4417 2.77333 92.475 2.92667 92.475 3.06C92.4883 3.19333 92.495 3.38 92.495 3.62V5.58C93.0817 5.52667 93.5217 5.5 93.815 5.5C94.1217 5.5 94.3483 5.51333 94.495 5.54C94.655 5.55333 94.8283 5.61333 95.015 5.72C95.215 5.81333 95.355 5.98667 95.435 6.24C95.515 6.49333 95.555 6.83333 95.555 7.26C95.555 7.67333 95.515 8.00667 95.435 8.26C95.355 8.51333 95.215 8.69333 95.015 8.8C94.815 8.89333 94.635 8.95333 94.475 8.98C94.3283 8.99333 94.1017 9 93.795 9Z" fill="black"/>
</svg>
