<svg width="20" height="20" viewBox="0 0 20 20" fill="none" xmlns="http://www.w3.org/2000/svg">
<path fill-rule="evenodd" clip-rule="evenodd" d="M10.1956 3.36584C11.5506 2.50917 13.3506 2.27251 14.9056 2.77084C18.2881 3.86167 19.3381 7.54917 18.3989 10.4833C16.9497 15.0917 10.7606 18.5292 10.4981 18.6733C10.4047 18.725 10.3014 18.7508 10.1981 18.7508C10.0947 18.7508 9.99225 18.7258 9.89892 18.675C9.63808 18.5325 3.49391 15.1458 1.99641 10.4842C1.99558 10.4842 1.99558 10.4833 1.99558 10.4833C1.05558 7.54834 2.10225 3.86001 5.48141 2.77084C7.06808 2.25751 8.79725 2.48334 10.1956 3.36584ZM5.86475 3.96084C3.13058 4.84251 2.44391 7.78334 3.18641 10.1025C4.35475 13.7375 8.97058 16.6767 10.1972 17.4042C11.4281 16.6692 16.0772 13.6975 17.2081 10.1058C17.9506 7.78417 17.2614 4.84334 14.5231 3.96084C13.1964 3.53501 11.6489 3.79417 10.5806 4.62084C10.3572 4.79251 10.0472 4.79584 9.82225 4.62584C8.69058 3.77501 7.21225 3.52584 5.86475 3.96084ZM13.7231 5.61576C14.8589 5.98326 15.6547 6.98909 15.7522 8.17826C15.7797 8.52242 15.5239 8.82409 15.1797 8.85159C15.1622 8.85326 15.1456 8.85409 15.1281 8.85409C14.8056 8.85409 14.5322 8.60659 14.5056 8.27992C14.4506 7.59492 13.9922 7.01659 13.3397 6.80576C13.0106 6.69909 12.8306 6.34659 12.9364 6.01909C13.0439 5.69076 13.3931 5.51242 13.7231 5.61576Z" fill="#222222"/>
</svg>
