<svg width="21" height="20" viewBox="0 0 21 20" fill="none" xmlns="http://www.w3.org/2000/svg">
<path fill-rule="evenodd" clip-rule="evenodd" d="M9.0295 16.755C9.46116 17.2358 10.0153 17.5 10.5903 17.5H10.5912C11.1687 17.5 11.7253 17.2358 12.1578 16.7542C12.3895 16.4983 12.7845 16.4775 13.0403 16.7083C13.297 16.9392 13.3178 17.335 13.087 17.5908C12.4137 18.3383 11.5278 18.75 10.5912 18.75H10.5895C9.65533 18.7492 8.77116 18.3375 8.10033 17.59C7.8695 17.3342 7.89033 16.9383 8.147 16.7083C8.40366 16.4767 8.79866 16.4975 9.0295 16.755ZM10.6318 0.833344C14.336 0.833344 16.8243 3.71834 16.8243 6.41251C16.8243 7.79834 17.1768 8.38584 17.551 9.00918C17.921 9.62418 18.3402 10.3225 18.3402 11.6425C18.0493 15.015 14.5285 15.29 10.6318 15.29C6.73516 15.29 3.2135 15.015 2.92599 11.6958C2.9235 10.3225 3.34266 9.62418 3.71266 9.00918L3.84329 8.78931C4.16489 8.23656 4.43933 7.6353 4.43933 6.41251C4.43933 3.71834 6.92766 0.833344 10.6318 0.833344ZM10.6318 2.08334C7.71933 2.08334 5.68933 4.36501 5.68933 6.41251C5.68933 8.14501 5.2085 8.94584 4.7835 9.65251C4.44266 10.22 4.1735 10.6683 4.1735 11.6425C4.31266 13.2142 5.35016 14.04 10.6318 14.04C15.8843 14.04 16.9543 13.1775 17.0927 11.5883C17.0902 10.6683 16.821 10.22 16.4802 9.65251C16.0552 8.94584 15.5743 8.14501 15.5743 6.41251C15.5743 4.36501 13.5443 2.08334 10.6318 2.08334Z" fill="#222222"/>
</svg>
