<svg width="375" height="44" viewBox="0 0 375 44" fill="none" xmlns="http://www.w3.org/2000/svg">
<path opacity="0.35" d="M336.5 20C336.5 18.8034 337.47 17.8333 338.667 17.8333H355.333C356.53 17.8333 357.5 18.8034 357.5 20V26C357.5 27.1966 356.53 28.1667 355.333 28.1667H338.667C337.47 28.1667 336.5 27.1966 336.5 26V20Z" stroke="#1F2937"/>
<path opacity="0.4" d="M359 21V25C359.805 24.6612 360.328 23.8731 360.328 23C360.328 22.1269 359.805 21.3388 359 21Z" fill="#1F2937"/>
<path d="M338 20.6667C338 19.9303 338.597 19.3333 339.333 19.3333H354.667C355.403 19.3333 356 19.9303 356 20.6667V25.3333C356 26.0697 355.403 26.6667 354.667 26.6667H339.333C338.597 26.6667 338 26.0697 338 25.3333V20.6667Z" fill="#1F2937"/>
<path fill-rule="evenodd" clip-rule="evenodd" d="M323.33 19.608C325.546 19.6081 327.677 20.4596 329.283 21.9863C329.404 22.1042 329.598 22.1027 329.717 21.983L330.873 20.8163C330.933 20.7556 330.967 20.6734 330.966 20.5878C330.966 20.5022 330.931 20.4204 330.87 20.3603C326.655 16.3208 320.005 16.3208 315.79 20.3603C315.729 20.4203 315.694 20.5021 315.694 20.5877C315.693 20.6733 315.727 20.7556 315.787 20.8163L316.943 21.983C317.062 22.1029 317.256 22.1044 317.377 21.9863C318.983 20.4595 321.114 19.608 323.33 19.608ZM323.33 23.4037C324.548 23.4036 325.722 23.8561 326.624 24.6733C326.746 24.7893 326.939 24.7868 327.058 24.6677L328.212 23.501C328.273 23.4398 328.307 23.3568 328.306 23.2705C328.305 23.1843 328.27 23.102 328.208 23.042C325.459 20.4856 321.204 20.4856 318.455 23.042C318.393 23.102 318.358 23.1843 318.357 23.2706C318.356 23.3569 318.39 23.4399 318.451 23.501L319.605 24.6677C319.724 24.7868 319.917 24.7893 320.039 24.6733C320.941 23.8567 322.114 23.4042 323.33 23.4037ZM325.643 25.9575C325.645 26.044 325.611 26.1274 325.549 26.188L323.552 28.2037C323.493 28.2629 323.414 28.2963 323.33 28.2963C323.247 28.2963 323.167 28.2629 323.109 28.2037L321.111 26.188C321.049 26.1274 321.015 26.0439 321.017 25.9574C321.019 25.8709 321.056 25.789 321.121 25.731C322.396 24.6521 324.264 24.6521 325.54 25.731C325.604 25.7891 325.642 25.871 325.643 25.9575Z" fill="#1F2937"/>
<path fill-rule="evenodd" clip-rule="evenodd" d="M309.667 17.6667H308.667C308.114 17.6667 307.667 18.1144 307.667 18.6667V27.3333C307.667 27.8856 308.114 28.3333 308.667 28.3333H309.667C310.219 28.3333 310.667 27.8856 310.667 27.3333V18.6667C310.667 18.1144 310.219 17.6667 309.667 17.6667ZM304 20H305C305.552 20 306 20.4477 306 21V27.3333C306 27.8856 305.552 28.3333 305 28.3333H304C303.448 28.3333 303 27.8856 303 27.3333V21C303 20.4477 303.448 20 304 20ZM300.333 22.3333H299.333C298.781 22.3333 298.333 22.781 298.333 23.3333V27.3333C298.333 27.8856 298.781 28.3333 299.333 28.3333H300.333C300.886 28.3333 301.333 27.8856 301.333 27.3333V23.3333C301.333 22.781 300.886 22.3333 300.333 22.3333ZM295.667 24.3333H294.667C294.114 24.3333 293.667 24.781 293.667 25.3333V27.3333C293.667 27.8856 294.114 28.3333 294.667 28.3333H295.667C296.219 28.3333 296.667 27.8856 296.667 27.3333V25.3333C296.667 24.781 296.219 24.3333 295.667 24.3333Z" fill="#1F2937"/>
<path d="M35.2148 17.3359V28H32.7466V20.1191L30.3149 20.8296V18.9546L34.9878 17.3359H35.2148ZM45.5569 21.6938V23.6421C45.5569 24.4087 45.4666 25.0752 45.2859 25.6416C45.1102 26.208 44.8563 26.6768 44.5242 27.0479C44.1971 27.4189 43.8064 27.6948 43.3523 27.8755C42.8982 28.0562 42.3978 28.1465 41.8509 28.1465C41.4114 28.1465 41.0013 28.0903 40.6204 27.978C40.2396 27.8608 39.8953 27.6851 39.5877 27.4507C39.285 27.2114 39.0237 26.9136 38.804 26.5571C38.5843 26.2007 38.4158 25.7808 38.2986 25.2974C38.1814 24.8091 38.1229 24.2573 38.1229 23.6421V21.6938C38.1229 20.9224 38.2107 20.2559 38.3865 19.6943C38.5672 19.1279 38.8235 18.6592 39.1556 18.2881C39.4876 17.917 39.8807 17.6411 40.3348 17.4604C40.7889 17.2798 41.2894 17.1895 41.8362 17.1895C42.2757 17.1895 42.6834 17.248 43.0594 17.3652C43.4402 17.4775 43.7845 17.6533 44.0921 17.8926C44.3997 18.127 44.6609 18.4224 44.8758 18.7788C45.0955 19.1353 45.264 19.5576 45.3812 20.0459C45.4983 20.5293 45.5569 21.0786 45.5569 21.6938ZM43.0887 23.9424V21.3789C43.0887 21.0371 43.0691 20.7393 43.0301 20.4854C42.9959 20.2314 42.9422 20.0166 42.8689 19.8408C42.8006 19.665 42.7151 19.5234 42.6126 19.416C42.5101 19.3037 42.3929 19.2231 42.261 19.1743C42.1341 19.1206 41.9925 19.0938 41.8362 19.0938C41.6409 19.0938 41.4651 19.1353 41.3089 19.2183C41.1575 19.2964 41.0281 19.4233 40.9207 19.5991C40.8133 19.7749 40.7303 20.0093 40.6717 20.3022C40.618 20.5952 40.5911 20.9541 40.5911 21.3789V23.9424C40.5911 24.2891 40.6082 24.5918 40.6424 24.8506C40.6814 25.1045 40.7352 25.3218 40.8035 25.5024C40.8768 25.6782 40.9646 25.8223 41.0672 25.9346C41.1697 26.042 41.2869 26.1201 41.4188 26.1689C41.5506 26.2178 41.6946 26.2422 41.8509 26.2422C42.0413 26.2422 42.2122 26.2031 42.3636 26.125C42.5149 26.0469 42.6443 25.9199 42.7518 25.7441C42.8641 25.5635 42.9471 25.3267 43.0008 25.0337C43.0594 24.7358 43.0887 24.3721 43.0887 23.9424ZM46.7584 26.8428C46.7584 26.4912 46.8854 26.1982 47.1393 25.9639C47.3932 25.7246 47.7203 25.605 48.1207 25.605C48.526 25.605 48.8531 25.7246 49.1021 25.9639C49.3561 26.1982 49.483 26.4912 49.483 26.8428C49.483 27.1943 49.3561 27.4897 49.1021 27.729C48.8531 27.9634 48.526 28.0806 48.1207 28.0806C47.7203 28.0806 47.3932 27.9634 47.1393 27.729C46.8854 27.4897 46.7584 27.1943 46.7584 26.8428ZM46.7584 20.998C46.7584 20.6465 46.8854 20.3535 47.1393 20.1191C47.3932 19.8799 47.7203 19.7603 48.1207 19.7603C48.526 19.7603 48.8531 19.8799 49.1021 20.1191C49.3561 20.3535 49.483 20.6465 49.483 20.998C49.483 21.3496 49.3561 21.645 49.1021 21.8843C48.8531 22.1187 48.526 22.2358 48.1207 22.2358C47.7203 22.2358 47.3932 22.1187 47.1393 21.8843C46.8854 21.645 46.7584 21.3496 46.7584 20.998ZM58.2064 26.0957V28H50.765V26.3887L54.1928 22.7852C54.4955 22.4385 54.7396 22.1284 54.9252 21.855C55.1107 21.5767 55.245 21.3252 55.328 21.1006C55.4159 20.876 55.4599 20.6733 55.4599 20.4927C55.4599 20.1851 55.4135 19.9287 55.3207 19.7236C55.2328 19.5137 55.101 19.355 54.9252 19.2476C54.7543 19.1401 54.5419 19.0864 54.288 19.0864C54.0341 19.0864 53.8119 19.1597 53.6215 19.3062C53.4311 19.4526 53.2821 19.6528 53.1747 19.9067C53.0722 20.1606 53.0209 20.4463 53.0209 20.7637H50.5453C50.5453 20.1094 50.704 19.5112 51.0214 18.9692C51.3437 18.4272 51.7904 17.9951 52.3617 17.6729C52.933 17.3457 53.5946 17.1821 54.3466 17.1821C55.1327 17.1821 55.7919 17.3042 56.3241 17.5483C56.8563 17.7925 57.2567 18.1465 57.5253 18.6104C57.7987 19.0693 57.9354 19.6235 57.9354 20.2729C57.9354 20.644 57.8769 21.0005 57.7597 21.3423C57.6425 21.6841 57.474 22.0234 57.2543 22.3604C57.0346 22.6924 56.766 23.0342 56.4486 23.3857C56.1361 23.7373 55.7797 24.1108 55.3793 24.5063L54.0023 26.0957H58.2064ZM61.2756 23.2466L59.3127 22.7852L59.9572 17.3359H66.1901V19.2549H61.9714L61.7297 21.3716C61.8469 21.3032 62.0446 21.2227 62.3229 21.1299C62.6062 21.0322 62.9187 20.9834 63.2604 20.9834C63.7878 20.9834 64.2541 21.064 64.6594 21.2251C65.0695 21.3813 65.4162 21.6133 65.6994 21.9209C65.9826 22.2236 66.195 22.5972 66.3366 23.0415C66.4831 23.4858 66.5563 23.9937 66.5563 24.5649C66.5563 25.0239 66.4807 25.4683 66.3293 25.8979C66.1828 26.3228 65.9558 26.7061 65.6481 27.0479C65.3454 27.3848 64.9621 27.6533 64.4982 27.8535C64.0344 28.0488 63.4851 28.1465 62.8503 28.1465C62.3767 28.1465 61.9152 28.0732 61.466 27.9268C61.0168 27.7803 60.6115 27.5703 60.2502 27.2969C59.8937 27.0186 59.6105 26.6841 59.4006 26.2935C59.1955 25.8979 59.0954 25.4561 59.1003 24.9678H61.5832C61.5979 25.2266 61.6589 25.4512 61.7663 25.6416C61.8737 25.832 62.0178 25.981 62.1984 26.0884C62.384 26.1909 62.5964 26.2422 62.8356 26.2422C63.0798 26.2422 63.2824 26.1934 63.4436 26.0957C63.6047 25.998 63.7316 25.8638 63.8244 25.6929C63.9172 25.522 63.9831 25.3267 64.0222 25.1069C64.0612 24.8823 64.0808 24.6455 64.0808 24.3965C64.0808 24.1328 64.0515 23.896 63.9929 23.686C63.9392 23.4761 63.8513 23.2979 63.7292 23.1514C63.6071 23 63.4484 22.8853 63.2531 22.8071C63.0627 22.729 62.8332 22.6899 62.5646 22.6899C62.2082 22.6899 61.9274 22.751 61.7224 22.873C61.5173 22.9951 61.3684 23.1196 61.2756 23.2466Z" fill="#1F2937"/>
</svg>
